<svg width="32" height="33" viewBox="0 0 32 33" fill="none" xmlns="http://www.w3.org/2000/svg">
<mask id="path-1-inside-1" fill="white">
<path fill-rule="evenodd" clip-rule="evenodd" d="M0 5.00003V29L3.99768 32.9977H28.0023L32 29V5.00003L28 1.00003L28.0023 0.997711H3.99768L4 1.00003L0 5.00003Z"/>
</mask>
<path fill-rule="evenodd" clip-rule="evenodd" d="M0 5.00003V29L3.99768 32.9977H28.0023L32 29V5.00003L28 1.00003L28.0023 0.997711H3.99768L4 1.00003L0 5.00003Z" fill="white"/>
<path d="M0 5.00003L-0.707107 4.29292L-1 4.58582V5.00003H0ZM0 29H-1V29.4142L-0.707107 29.7071L0 29ZM3.99768 32.9977L3.29057 33.7048L3.58347 33.9977H3.99768V32.9977ZM28.0023 32.9977V33.9977H28.4165L28.7094 33.7048L28.0023 32.9977ZM32 29L32.7071 29.7071L33 29.4142V29H32ZM32 5.00003H33V4.58582L32.7071 4.29292L32 5.00003ZM28 1.00003L27.2929 0.292924L26.5858 1.00003L27.2929 1.70714L28 1.00003ZM28.0023 0.997711L28.7094 1.70482L30.4165 -0.00228882H28.0023V0.997711ZM3.99768 0.997711V-0.00228882H1.58347L3.29057 1.70482L3.99768 0.997711ZM4 1.00003L4.70711 1.70714L5.41421 1.00003L4.70711 0.292924L4 1.00003ZM-1 5.00003V29H1V5.00003H-1ZM-0.707107 29.7071L3.29057 33.7048L4.70479 32.2906L0.707107 28.2929L-0.707107 29.7071ZM3.99768 33.9977H28.0023V31.9977H3.99768V33.9977ZM28.7094 33.7048L32.7071 29.7071L31.2929 28.2929L27.2952 32.2906L28.7094 33.7048ZM33 29V5.00003H31V29H33ZM32.7071 4.29292L28.7071 0.292924L27.2929 1.70714L31.2929 5.70714L32.7071 4.29292ZM28.7071 1.70714L28.7094 1.70482L27.2952 0.290604L27.2929 0.292924L28.7071 1.70714ZM28.0023 -0.00228882H3.99768V1.99771H28.0023V-0.00228882ZM3.29057 1.70482L3.29289 1.70714L4.70711 0.292924L4.70479 0.290604L3.29057 1.70482ZM3.29289 0.292924L-0.707107 4.29292L0.707107 5.70714L4.70711 1.70714L3.29289 0.292924Z" fill="#B0BAC9" mask="url(#path-1-inside-1)"/>
<path fill-rule="evenodd" clip-rule="evenodd" d="M20.1305 9.26966C20.4234 9.56255 20.4234 10.0374 20.1305 10.3303L13.4609 17L20.1305 23.6697C20.4234 23.9625 20.4234 24.4374 20.1305 24.7303C19.8376 25.0232 19.3628 25.0232 19.0699 24.7303L11.8699 17.5303C11.7292 17.3897 11.6502 17.1989 11.6502 17C11.6502 16.8011 11.7292 16.6103 11.8699 16.4697L19.0699 9.26966C19.3628 8.97676 19.8376 8.97676 20.1305 9.26966Z" fill="#B0BAC9"/>
</svg>
